<?xml version="1.0" standalone="no"?>
<!DOCTYPE svg PUBLIC "-//W3C//DTD SVG 20010904//EN"
 "http://www.w3.org/TR/2001/REC-SVG-20010904/DTD/svg10.dtd">
<svg version="1.0" xmlns="http://www.w3.org/2000/svg"
 width="500.000000pt" height="500.000000pt" viewBox="0 0 500.000000 500.000000"
 preserveAspectRatio="xMidYMid meet">
<metadata>
Created by potrace 1.11, written by Peter Selinger 2001-2013
</metadata>
<g transform="translate(0.000000,500.000000) scale(0.100000,-0.100000)"
fill="#000000" stroke="none">
<path d="M2349 4896 c-2 -2 -38 -6 -79 -10 -77 -6 -117 -12 -160 -22 -14 -3
-36 -8 -50 -10 -14 -2 -36 -7 -50 -10 -14 -3 -32 -7 -40 -9 -8 -2 -35 -8 -60
-15 -25 -7 -52 -13 -60 -15 -16 -3 -179 -60 -217 -76 -52 -21 -78 -35 -85 -44
-4 -5 -8 -7 -8 -3 0 10 -144 -62 -148 -74 -2 -4 -9 -8 -15 -8 -14 0 -135 -72
-209 -125 -31 -22 -66 -47 -78 -55 -12 -8 -28 -19 -34 -25 -6 -5 -40 -35 -76
-65 -91 -77 -224 -213 -294 -301 -33 -41 -65 -78 -71 -84 -27 -25 -180 -273
-225 -365 -62 -124 -138 -308 -145 -350 0 -3 -6 -21 -13 -41 -7 -20 -14 -45
-16 -55 -2 -11 -9 -39 -16 -64 -7 -25 -14 -54 -16 -65 -2 -11 -6 -31 -9 -45
-9 -41 -14 -72 -20 -110 -3 -19 -9 -64 -14 -100 -6 -36 -8 -171 -7 -300 3
-213 7 -273 20 -335 3 -11 8 -42 12 -70 3 -27 10 -60 15 -72 5 -13 7 -23 4
-23 -2 0 1 -15 6 -32 6 -18 12 -40 14 -48 1 -8 9 -35 16 -60 7 -25 13 -48 15
-52 1 -5 3 -10 4 -13 3 -5 3 -6 15 -50 4 -16 12 -36 18 -42 5 -7 6 -13 2 -13
-4 0 -3 -6 2 -12 6 -7 16 -31 23 -53 7 -22 16 -45 21 -51 5 -6 6 -14 2 -17 -3
-4 -1 -7 5 -7 7 0 12 -6 12 -12 0 -14 108 -230 118 -238 4 -3 16 -22 26 -42
11 -21 22 -38 26 -38 4 0 10 -8 14 -17 5 -16 14 -32 38 -67 4 -6 19 -24 33
-40 14 -16 25 -32 25 -36 0 -3 8 -15 17 -26 10 -10 36 -42 58 -69 52 -64 241
-254 291 -291 21 -16 49 -38 61 -49 41 -37 52 -45 175 -125 296 -194 610 -312
983 -370 97 -15 164 -17 350 -15 127 2 248 6 270 9 344 52 582 132 905 307 26
14 227 146 245 161 124 102 163 137 240 213 111 111 285 318 285 339 0 4 18
31 40 61 22 30 40 59 40 64 0 5 6 16 13 23 17 19 34 50 83 149 81 165 125 282
179 479 13 47 57 274 63 325 9 78 9 493 0 570 -8 68 -35 219 -43 246 -3 9 -8
28 -10 41 -12 63 -18 84 -27 96 -6 6 -8 12 -5 12 3 0 -6 33 -19 73 -14 39 -27
77 -28 82 -5 17 -17 48 -37 92 -10 24 -19 45 -19 48 0 8 -96 198 -118 235 -12
19 -26 44 -31 55 -5 12 -16 27 -25 34 -9 7 -16 17 -16 22 0 5 -19 36 -42 68
-24 33 -50 69 -58 81 -52 76 -209 245 -315 340 -112 99 -123 108 -129 103 -3
-4 -6 -1 -6 6 0 16 -232 167 -361 235 -59 30 -142 69 -185 86 -44 17 -88 35
-99 40 -92 41 -385 109 -550 127 -58 6 -440 14 -446 9z"/>
</g>
</svg>
